<?xml version="1.0" encoding="UTF-8"?>
<svg version="1.1" xmlns="http://www.w3.org/2000/svg" width="512" height="512">
<path d="M0 0 C0.81829411 0.84500407 1.63658821 1.69000814 2.47967911 2.5606184 C6.7692869 6.12376737 11.31955508 5.70375275 16.67669678 5.65510559 C17.75282549 5.66502224 18.82895421 5.67493889 19.93769288 5.68515605 C23.54437674 5.71212834 27.15007487 5.70334745 30.75683594 5.69458008 C33.3424579 5.70626637 35.92807116 5.72003531 38.51367188 5.73573303 C44.80886262 5.7695176 51.10379316 5.77586974 57.39906237 5.77174488 C62.51804862 5.7686522 67.6369547 5.77421455 72.75592804 5.78589439 C74.23146129 5.78919834 75.70699453 5.79250193 77.18252778 5.79580516 C78.28423001 5.79827533 78.28423001 5.79827533 79.40818885 5.8007954 C93.29568693 5.8305678 107.18303621 5.82736306 121.07055023 5.81444123 C133.76388581 5.80370227 146.45669343 5.83575815 159.1499128 5.88789991 C172.19280136 5.94106261 185.23543842 5.96443274 198.2784369 5.95605963 C205.59726839 5.95190765 212.91562714 5.95957136 220.23436737 5.99866676 C227.11950801 6.03511201 234.00355077 6.02969251 240.88870239 5.99632835 C243.41300365 5.99055227 245.93737893 5.99837784 248.461586 6.02093506 C263.2783561 6.76938589 263.2783561 6.76938589 276.33770752 1.07621765 C277.57831249 -0.26443021 278.80223648 -1.62094237 280 -3 C296.26886524 -13.54071358 316.8355629 -16.21272655 335.625 -12.875 C348.00319466 -10.0736191 358.14439095 -4.916538 368 3 C369.25683594 3.96099609 369.25683594 3.96099609 370.5390625 4.94140625 C382.73121537 15.14023889 392.15190703 32.23416989 394 48 C394.29513753 52.23077875 394.40247082 56.44709292 394.4375 60.6875 C394.4478125 61.72052246 394.458125 62.75354492 394.46875 63.81787109 C394.34869018 74.29809245 392.12863982 83.90019203 387.25 93.1875 C386.89856934 93.86893066 386.54713867 94.55036133 386.18505859 95.25244141 C382.80412062 101.64407493 379.06420981 107.39842458 373.50642395 112.11709595 C368.51819621 116.44901348 365.41790982 119.63902006 364.69018555 126.36083984 C364.61818523 128.72651074 364.60302176 131.09441107 364.63671875 133.4609375 C364.62477982 134.72789459 364.61284088 135.99485168 364.60054016 137.30020142 C364.58938839 139.97126182 364.59837522 142.6329449 364.64135742 145.30273438 C364.69267528 148.69022108 364.64863546 152.0688247 364.57982826 155.45571136 C363.7438984 171.16525457 363.7438984 171.16525457 369.79756165 185.0296936 C372.03851199 187.23283161 374.49999047 189.10105613 377 191 C378.63064332 192.87658144 380.22132482 194.78946238 381.75 196.75 C384.96350625 200.74376407 388.26241813 204.6278313 391.6875 208.44140625 C394.05956981 211.25823915 394.136863 213.21119563 394.17700195 216.81347656 C394.18983719 217.8150177 394.20267242 218.81655884 394.21589661 219.84844971 C394.22697701 221.47807648 394.22697701 221.47807648 394.23828125 223.140625 C394.246353 224.25556335 394.25442474 225.37050171 394.26274109 226.51922607 C394.27659059 228.88308147 394.28730885 231.24695694 394.29516602 233.61083984 C394.31236385 237.22141604 394.35624186 240.83107325 394.40039062 244.44140625 C394.41051865 246.73697243 394.41903441 249.0325464 394.42578125 251.328125 C394.44328934 252.40644592 394.46079742 253.48476685 394.47883606 254.59576416 C394.46115672 260.72431782 394.12370069 264.35006196 390 269 C386.13354033 272.11464807 381.92373724 273.14067821 377 273 C371.11031147 271.3029711 368.47493005 268.80357977 365 264 C363.39084477 260.78168954 364.03440102 257.29110541 364.140625 253.765625 C364.17216409 251.16229139 364.19204291 248.55901679 364.21142578 245.95556641 C364.23684194 244.1728961 364.28353284 242.39038326 364.35302734 240.60888672 C364.68949697 231.46955197 364.80138982 224.04706885 358.512146 216.91217041 C356.29510724 214.66867918 353.99209506 212.55696776 351.61343384 210.48661804 C349.07201426 208.14495388 347.01596892 205.52255227 344.875 202.8125 C343.59372194 201.20002364 342.30372495 199.59438224 341 198 C340.6275415 197.47567383 340.25508301 196.95134766 339.87133789 196.41113281 C336.95649076 194.21311371 333.7783089 194.35435654 330.25390625 194.21484375 C329.49072586 194.18031097 328.72754547 194.1457782 327.9412384 194.11019897 C325.48122409 194.02047077 323.02391411 193.97022663 320.5625 193.9375 C319.73365295 193.92608978 318.90480591 193.91467957 318.05084229 193.90292358 C307.0725561 193.55742468 307.0725561 193.55742468 297.30078125 197.7421875 C294.66496847 200.54767923 292.80600001 203.70780902 291.05810547 207.12255859 C289.31688025 210.21208835 286.90015925 212.60123585 284.4375 215.125 C282.94491213 216.73768115 281.46383304 218.36117363 280 220 C279.47019531 220.53310791 278.94039063 221.06621582 278.39453125 221.61547852 C276.35226317 225.10757101 276.59820094 228.5250698 276.62890625 232.45703125 C276.61151881 234.14388218 276.59393448 235.8307311 276.57617188 237.51757812 C276.5661193 240.1638572 276.56249838 242.81000149 276.56420898 245.45629883 C276.56062082 248.01944579 276.53320791 250.58156797 276.50390625 253.14453125 C276.51208878 253.92705765 276.5202713 254.70958405 276.52870178 255.51582336 C276.45346636 261.11861593 275.18652163 264.37126289 272 269 C268.19865175 272.16779021 263.90120756 273.14937014 259 273 C253.77251811 271.40517502 250.5319884 269.15528047 247 265 C246.04103636 262.12310909 245.85783031 260.24904845 245.82299805 257.2565918 C245.81016281 256.29516769 245.79732758 255.33374359 245.78410339 254.34318542 C245.77302299 252.78692192 245.77302299 252.78692192 245.76171875 251.19921875 C245.753647 250.13008743 245.74557526 249.06095612 245.73725891 247.95942688 C245.72342409 245.69570536 245.71269924 243.43196303 245.70483398 241.16821289 C245.68761876 237.71134826 245.64372584 234.25543939 245.59960938 230.79882812 C245.58948247 228.59896536 245.58096636 226.39909447 245.57421875 224.19921875 C245.54795662 222.65206429 245.54795662 222.65206429 245.52116394 221.07365417 C245.53899115 215.15750752 246.00600088 211.67341187 250 207 C250.69150146 206.11308472 250.69150146 206.11308472 251.39697266 205.20825195 C251.8151123 204.72316162 252.23325195 204.23807129 252.6640625 203.73828125 C253.14182129 203.18180908 253.61958008 202.62533691 254.11181641 202.05200195 C254.61116699 201.47796631 255.11051758 200.90393066 255.625 200.3125 C256.14626465 199.70817139 256.6675293 199.10384277 257.20458984 198.48120117 C261.39618452 193.64234689 265.68796545 188.90311819 270.0390625 184.20703125 C273.45472785 180.3627067 274.25376032 178.2640344 274.29052734 173.19921875 C274.30328705 172.0078833 274.31604675 170.81654785 274.32919312 169.58911133 C274.33141876 168.30157959 274.33364441 167.01404785 274.3359375 165.6875 C274.3423644 164.3537583 274.34909268 163.02001802 274.35610962 161.6862793 C274.36808054 158.89205658 274.37179052 156.09795749 274.37060547 153.30371094 C274.37040198 149.72216222 274.39773389 146.14140439 274.43214989 142.56004333 C274.45437699 139.80623731 274.45844437 137.05262313 274.45738602 134.29873657 C274.46089537 132.33606095 274.48258063 130.37344519 274.50448608 128.41088867 C274.49833282 127.21955322 274.49217957 126.02821777 274.48583984 124.80078125 C274.48868988 123.75059814 274.49153992 122.70041504 274.49447632 121.6184082 C274.23782618 118.94616828 274.23782618 118.94616828 272.4167614 117.35889721 C269.10700722 115.4978878 266.62823505 115.63113625 262.83734131 115.63923645 C261.75415694 115.63539154 261.75415694 115.63539154 260.64909005 115.63146895 C258.22904913 115.62652696 255.80963189 115.64303033 253.38964844 115.65942383 C251.65509048 115.66027001 249.92053145 115.65979513 248.18597412 115.65809631 C243.47552349 115.6572346 238.76530144 115.6748889 234.05490398 115.69581819 C229.13282615 115.71455559 224.21074325 115.71633311 219.28863525 115.71989441 C209.96723526 115.72922351 200.64594066 115.75384901 191.32458711 115.78394288 C180.71286103 115.81745997 170.10112996 115.83396613 159.48936415 115.84902918 C137.65951725 115.88039779 115.82976526 115.93317512 94 116 C98.85507742 121.31565326 103.78272696 126.55600531 108.7644043 131.75317383 C110.44619481 133.52487898 112.11141217 135.31248385 113.75854492 137.11645508 C124.2592411 149.26751883 124.2592411 149.26751883 138.76042175 154.54298401 C141.83324713 154.56231138 144.84754874 154.36178276 147.90545654 154.07550049 C161.36782914 153.59023211 176.72119484 162.32146358 186.62890625 170.78125 C200.04091033 183.33152729 210.92893348 199.56399734 212.16113281 218.47265625 C212.59861045 245.45383521 212.59861045 245.45383521 206.984375 255.84375 C206.61957031 256.5231665 206.25476563 257.20258301 205.87890625 257.90258789 C205.15710835 259.20366607 204.40180221 260.48705534 203.60546875 261.74389648 C196.59890289 273.96175729 203.44597793 295.01827338 205.32008743 308.63161469 C205.84482606 312.447087 206.3481921 316.26275943 206.80175781 320.08740234 C208.95428641 342.84101618 208.95428641 342.84101618 221.9921875 360.70019531 C222.98476563 361.45913086 223.97734375 362.21806641 225 363 C226.28802986 364.38218071 227.55023755 365.79054308 228.75 367.25 C231.24709573 370.14687707 233.79962845 372.98490134 236.375 375.8125 C239.62698509 379.42705633 242.81586811 383.08458005 245.9375 386.8125 C247.03384766 388.12154297 247.03384766 388.12154297 248.15234375 389.45703125 C251.195215 393.64499992 252.25562421 397.1441297 252.1953125 402.30078125 C252.18886719 403.27724609 252.18242187 404.25371094 252.17578125 405.25976562 C252.15902344 406.26716797 252.14226562 407.27457031 252.125 408.3125 C252.11597656 409.33923828 252.10695313 410.36597656 252.09765625 411.42382812 C252.07416201 413.94945899 252.04131131 416.4746081 252 419 C252.75095947 418.98428955 253.50191895 418.9685791 254.27563477 418.95239258 C257.70451211 418.88972242 261.13326855 418.85090739 264.5625 418.8125 C265.74392578 418.78736328 266.92535156 418.76222656 268.14257812 418.73632812 C275.7833502 418.67211996 281.27659923 418.88039395 287.3125 423.9375 C290.70275561 428.08114574 291.46075556 431.41586765 291.3046875 436.6875 C290.79806131 440.53266289 289.53505444 443.09308862 287 446 C280.92120047 450.47877768 274.68561352 450.56889339 267.38598633 450.50793457 C266.23323369 450.51417453 265.08048105 450.5204145 263.89279652 450.52684355 C260.710862 450.53999251 257.52954297 450.53532219 254.3476243 450.52289867 C250.90923781 450.51382239 247.47093246 450.52783063 244.03256226 450.53881836 C237.30384083 450.55658079 230.57529813 450.55277382 223.84656978 450.5411678 C218.37675307 450.53212475 212.90698635 450.53091323 207.43716431 450.53526306 C206.65790614 450.53587599 205.87864797 450.53648893 205.07577592 450.53712043 C203.49260003 450.53839937 201.90942415 450.53969622 200.32624829 450.5410108 C185.48979079 450.55240992 170.65343224 450.53931339 155.81699097 450.51780933 C143.09376475 450.49993894 130.37068452 450.50304323 117.64746094 450.52148438 C102.8631624 450.5429029 88.07895052 450.55131135 73.29463863 450.53903532 C71.717371 450.53776116 70.14010335 450.53650367 68.56283569 450.53526306 C67.7868422 450.53464596 67.0108487 450.53402886 66.21134025 450.53339306 C60.74972849 450.5299431 55.28817183 450.53576085 49.8265686 450.54518127 C43.16831714 450.55641357 36.51025425 450.55333548 29.85202432 450.5320583 C26.45652533 450.52156426 23.06134044 450.5173975 19.66584396 450.53065491 C15.98158712 450.54158329 12.29821418 450.52787751 8.61401367 450.50793457 C7.01128208 450.5213189 7.01128208 450.5213189 5.37617207 450.53497362 C-0.841925 450.46967603 -5.88891417 449.76577926 -11 446 C-14.63285219 441.83758967 -15.65802528 437.69320057 -15.38671875 432.2109375 C-14.54955474 427.42472707 -12.42739751 424.07054814 -8.5 421.125 C-4.2043363 419.19195134 -0.63139663 418.87925786 4.078125 418.90234375 C5.23828125 418.90556641 6.3984375 418.90878906 7.59375 418.91210938 C8.8003125 418.92048828 10.006875 418.92886719 11.25 418.9375 C13.08304687 418.94426758 13.08304687 418.94426758 14.953125 418.95117188 C17.96879946 418.96295185 20.98437498 418.97940147 24 419 C23.97905273 418.37544922 23.95810547 417.75089844 23.93652344 417.10742188 C23.85264156 414.2384494 23.80111489 411.36973592 23.75 408.5 C23.69972656 407.02660156 23.69972656 407.02660156 23.6484375 405.5234375 C23.51884804 395.80422837 26.3411341 390.3105614 32.97387695 383.36987305 C33.88399536 382.44428589 33.88399536 382.44428589 34.8125 381.5 C36.07374612 380.18438843 37.33417318 378.86799112 38.59375 377.55078125 C39.18929687 376.93283691 39.78484375 376.31489258 40.3984375 375.67822266 C42.80584327 373.15558435 45.08505992 370.53250615 47.359375 367.890625 C50.08773491 364.74651501 52.89509704 361.67348015 55.69140625 358.58984375 C56.45324219 357.73519531 57.21507812 356.88054687 58 356 C58.97590088 355.1344751 59.95180176 354.2689502 60.95727539 353.37719727 C65.8584255 347.60413764 66.02286112 339.61307981 66.9921875 332.375 C67.22825213 330.74238787 67.46633328 329.11006618 67.70632935 327.47802734 C68.32984275 323.19617109 68.92326007 318.91064755 69.51116943 314.6237793 C69.99525185 311.13279874 70.50116633 307.64514887 71.00820732 304.15744019 C71.6147615 299.98105799 72.21090464 295.80321474 72.8046875 291.625 C72.91739864 290.83486511 73.03010979 290.04473022 73.14623642 289.23065186 C73.4648798 286.98002177 73.77639141 284.72852662 74.08544922 282.4765625 C74.26276581 281.19861816 74.4400824 279.92067383 74.62277222 278.60400391 C75.51174506 271.1468159 75.51174506 271.1468159 73.35546875 264.16796875 C73.00806641 263.51376953 72.66066406 262.85957031 72.30273438 262.18554688 C71.93470703 261.52619141 71.56667969 260.86683594 71.1875 260.1875 C68.85294681 255.94477674 66.99653671 252.16775646 65.98092651 247.41172791 C63.93977142 240.51096007 59.22909183 236.16112861 54.26220703 231.18188477 C53.25014967 230.1422837 52.239496 229.1013146 51.23013306 228.05909729 C48.49836602 225.24881938 45.74428723 222.46151653 42.98289728 219.68037152 C41.25236399 217.9359139 39.5263798 216.18707743 37.80178452 214.43675041 C31.7665353 208.31290861 25.71135756 202.20951167 19.63916016 196.12231445 C14.0091342 190.47717914 8.42773097 184.78692804 2.86665452 179.07393414 C-1.93290565 174.14798368 -6.76720419 169.25792471 -11.62865937 164.39305538 C-14.52148863 161.49682449 -17.39864222 158.5885478 -20.24059677 155.64230537 C-35.41561904 139.2980337 -35.41561904 139.2980337 -56.15969658 133.07220554 C-57.71819548 133.05822617 -59.27693465 133.05947915 -60.83537674 133.07877922 C-75.81737279 132.533525 -90.60782933 120.53209681 -100.375 110.04296875 C-112.616844 96.23581733 -118.62015799 78.98469346 -118.4375 60.6875 C-118.42847656 59.59518066 -118.41945313 58.50286133 -118.41015625 57.37744141 C-117.99398969 37.87252408 -110.75427021 21.72912529 -97 8 C-96.44957031 7.37867187 -95.89914063 6.75734375 -95.33203125 6.1171875 C-71.06319583 -20.60849299 -27.90545081 -19.28350089 0 0 Z M-77.8125 31.8125 C-85.97190483 41.78082949 -89.12614268 53.26051094 -88 66 C-85.88741669 77.94929933 -80.16001973 88.51175139 -70.45703125 95.94921875 C-59.06431793 103.61399203 -47.83778535 105.79384033 -34.16796875 103.53125 C-22.68431461 100.49305489 -12.55799594 93.14443903 -6.17578125 83.140625 C-0.05275651 71.69516471 1.55262686 60.28628048 -1.90625 47.703125 C-6.01995522 35.86232485 -12.96299055 27.06552851 -24 21 C-42.75608642 11.9960098 -63.77203728 16.83398912 -77.8125 31.8125 Z M286.67578125 31.578125 C278.8800308 41.66504794 275.03282566 52.85210921 276.25390625 65.6640625 C278.56873651 79.1359575 286.01276375 89.99061283 297 98 C308.01355387 104.02909995 318.97976428 105.66023096 331.33203125 103.38671875 C344.35895671 99.51108038 353.89747647 90.79989729 360.3125 79 C365.50582755 67.69949756 365.26471368 55.55599835 361 44 C355.86659235 32.17760662 347.3534774 24.19952047 335.703125 18.96875 C318.24954152 12.64329022 298.95851912 17.95357543 286.67578125 31.578125 Z M26 36 C28.73638769 50.45071515 28.73638769 50.45071515 35.83496094 61.55029297 C36.4176902 62.22946903 37.00041946 62.9086451 37.60080719 63.60840225 C39.50726153 65.75523683 41.47311238 67.81838735 43.484375 69.8671875 C44.52470509 70.93185556 44.52470509 70.93185556 45.58605194 72.01803207 C58.69097257 84.99111659 70.36759148 88.58924478 88.51403809 88.71286011 C93.41826116 88.67261149 98.30861242 88.47064519 103.20727539 88.24460602 C108.38933092 88.04090535 113.57237182 88.02549406 118.7578125 87.98779297 C128.52304645 87.8893461 138.27645396 87.62830769 148.03653717 87.3046093 C159.16959866 86.94360503 170.30330711 86.77018709 181.44078827 86.61035538 C204.30035169 86.27820896 227.14950655 85.71750745 250 85 C249.78806 84.05282104 249.57612 83.10564209 249.35775757 82.12976074 C249.08291534 80.87973267 248.80807312 79.62970459 248.52490234 78.34179688 C248.25108734 77.10586792 247.97727234 75.86993896 247.69515991 74.59655762 C246.77760709 69.849403 246.55689836 65.3200828 246.625 60.5 C246.61339844 59.67886719 246.60179687 58.85773438 246.58984375 58.01171875 C246.62620208 50.121962 248.26239744 44.10881193 250 36 C176.08 36 102.16 36 26 36 Z M24 90 C23.32517578 91.30710937 23.32517578 91.30710937 22.63671875 92.640625 C15.05528083 106.86863777 5.59950404 116.43815008 -8 125 C-3.86327158 129.92891767 0.43302576 134.58161289 4.98339844 139.12866211 C5.65405838 139.80268066 6.32471832 140.47669922 7.01570129 141.17114258 C9.2109738 143.375838 11.40992614 145.57681526 13.609375 147.77734375 C15.14307871 149.31426296 16.67670795 150.85125649 18.21026611 152.38832092 C21.41265488 155.59667695 24.61708315 158.80298002 27.82275391 162.00805664 C31.93942054 166.12462107 36.0491322 170.24805537 40.15716171 174.37323666 C43.31577833 177.54293445 46.47889149 180.70811474 49.64331818 183.87201118 C51.16164831 185.3915246 52.67834978 186.91266716 54.19341278 188.43543816 C56.30231522 190.55407432 58.41738154 192.66635648 60.53417969 194.77709961 C61.16276382 195.41130325 61.79134796 196.0455069 62.4389801 196.69892883 C65.20322609 199.9023149 65.20322609 199.9023149 69 201 C69.40089844 200.11699219 69.80179687 199.23398438 70.21484375 198.32421875 C76.9802921 183.86616006 86.60781031 173.90019859 99 164 C89.37179357 154.34867594 79.74092721 144.70001509 70.10660648 135.05479431 C65.63362914 130.57658687 61.16159144 126.09744923 56.69165039 121.61621094 C52.38205426 117.29579043 48.07005652 112.97778064 43.75634575 108.66146851 C42.10675795 107.01002564 40.45805395 105.3576995 38.81022835 103.70449829 C36.51128103 101.39834652 34.20927893 99.09528773 31.90649414 96.79296875 C31.21813477 96.1010141 30.52977539 95.40905945 29.82055664 94.69613647 C29.19653458 94.07348907 28.57251251 93.45084167 27.92958069 92.80932617 C27.38480103 92.26362473 26.84002138 91.71792328 26.27873325 91.15568542 C25.16361517 89.88824832 25.16361517 89.88824832 24 90 Z M306 134 C306 143.57 306 153.14 306 163 C315.24 163 324.48 163 334 163 C334 153.43 334 143.86 334 134 C324.76 134 315.52 134 306 134 Z M103 201 C99.03917116 206.25240346 96.74959388 211.68678012 95 218 C94.773125 218.804375 94.54625 219.60875 94.3125 220.4375 C92.75123332 233.23988675 95.89922723 244.26510532 103 255 C110.76323598 264.91334791 122.46353678 270.34322309 134.75 271.875 C147.70077005 272.66689422 158.26548966 268.05389259 168.125 260.0625 C177.07731969 251.70979051 181.7501208 239.80028283 182.3125 227.6875 C181.89136424 214.23455196 176.00659501 202.96327528 166.30078125 193.78515625 C146.09686587 178.10911324 119.36523996 181.68901684 103 201 Z M104 294 C101.83306975 296.16693025 102.03394433 300.63932805 101.58984375 303.63671875 C101.45808243 304.50891556 101.32632111 305.38111237 101.19056702 306.27973938 C100.91201616 308.13141584 100.63558503 309.9834122 100.36108398 311.83569336 C99.94172804 314.65903441 99.51334569 317.48089974 99.08398438 320.30273438 C98.81455478 322.10148029 98.54565766 323.90030607 98.27734375 325.69921875 C98.14923813 326.54006516 98.02113251 327.38091156 97.8891449 328.24723816 C97.77224808 329.04438736 97.65535126 329.84153656 97.53491211 330.6628418 C97.43133896 331.35709763 97.32776581 332.05135345 97.22105408 332.76664734 C96.95063572 335.49873702 97 338.25456013 97 341 C124.06 341 151.12 341 179 341 C178.1454995 330.67814021 178.1454995 330.67814021 176.87890625 320.42578125 C176.77408432 319.69046677 176.66926239 318.95515228 176.56126404 318.19755554 C176.34220776 316.67251683 176.12118691 315.14775899 175.89819336 313.62329102 C175.55768806 311.27937634 175.23094472 308.93377182 174.90429688 306.58789062 C174.68833428 305.09623314 174.47156831 303.6046917 174.25390625 302.11328125 C174.11004234 301.06192741 174.11004234 301.06192741 173.96327209 299.98933411 C173.71088586 298.31441923 173.36416828 296.65421284 173 295 C172.01 294.505 172.01 294.505 171 294 C168.97346402 294.69809452 166.9771451 295.48480364 165 296.3125 C144.77733681 304.23432671 123.83799837 302.26583266 104 294 Z M79 378 C78.37351563 378.68707031 77.74703125 379.37414062 77.1015625 380.08203125 C76.61429688 380.65308594 76.12703125 381.22414063 75.625 381.8125 C72.95323458 384.90959131 70.24219622 387.964993 67.5 391 C64.06710898 394.80322002 60.67356693 398.63712323 57.3125 402.50390625 C56.56450684 403.35652941 55.80201622 404.19798378 55 405 C55 409.62 55 414.24 55 419 C109.78 419 164.56 419 221 419 C222.44679382 406.00745674 222.44679382 406.00745674 217.9375 401.125 C216.63135664 400.07537377 215.31874411 399.03375029 214 398 C212.84561413 396.75579921 211.72086232 395.48354326 210.625 394.1875 C207.95323458 391.09040869 205.24219622 388.035007 202.5 385 C199.06710898 381.19677998 195.67356693 377.36287677 192.3125 373.49609375 C190.68646325 371.40879917 190.68646325 371.40879917 188.27229881 370.85739899 C187.51538057 370.84922905 186.75846233 370.84105911 185.97860718 370.8326416 C185.11227661 370.82115082 184.24594604 370.80966003 183.35336304 370.79782104 C181.91653671 370.78671799 181.91653671 370.78671799 180.45068359 370.77539062 C179.44741028 370.76400055 178.44413696 370.75261047 177.41046143 370.74087524 C166.89919452 370.63012905 156.38721595 370.58277187 145.87548828 370.54003906 C140.88555505 370.51776548 135.89636988 370.47600336 130.90673828 370.41699219 C124.88843373 370.34594654 118.87083327 370.30921225 112.85213089 370.29692078 C110.55797393 370.28651128 108.26383862 370.26406624 105.96992111 370.22932434 C102.7543407 370.18314799 99.5415218 370.18111532 96.32568359 370.18945312 C94.90707535 370.1540593 94.90707535 370.1540593 93.45980835 370.11795044 C86.3769282 370.20670449 83.33527763 372.53594471 79 378 Z " fill="#000000" transform="translate(118,38)"/>
<path d="M0 0 C3.75216975 2.946826 5.82563645 5.82132359 6.4375 10.53125 C6.50006573 14.99844327 6.40750928 18.24418447 4.6015625 22.3828125 C0.88331947 26.19401161 -2.79293115 28.77968549 -8.2421875 29.0703125 C-12.72492394 28.71169358 -16.41608808 27.93018343 -19.8984375 24.9453125 C-23.28780131 20.36509113 -24.58506177 16.86870147 -24.2734375 11.15234375 C-23.50264616 6.61591553 -21.81200621 3.47528564 -18.203125 0.58984375 C-12.50376521 -2.79054576 -5.90527273 -3.28070707 0 0 Z " fill="#000000" transform="translate(446.8984375,85.0546875)"/>
<path d="M0 0 C3.53074935 3.11042204 5.24545663 5.74472509 5.94140625 10.453125 C6.18798288 15.13012679 5.62847021 18.86188169 3.01171875 22.80078125 C-0.20083758 26.30292013 -3.93934092 28.14764998 -8.68359375 28.46875 C-14.87868523 28.05086862 -19.03810675 25.88308258 -23.25 21.25 C-25.02014485 16.62795511 -25.0271815 12.19311099 -24.375 7.3125 C-22.38412717 3.33075434 -20.21425564 0.59205803 -16.375 -1.6875 C-10.68075451 -3.48947642 -5.27214302 -2.63607151 0 0 Z " fill="#000000" transform="translate(83.375,85.6875)"/>
<path d="M0 0 C3.47294889 2.96222111 6.8485984 6.29316737 7.36328125 10.984375 C7.53135435 16.8227038 7.13920121 20.24077085 3.125 24.8125 C-0.90988765 28.35831036 -4.44161409 29.11610179 -9.81640625 29.02734375 C-14.38476317 28.55057026 -17.17617726 26.58687114 -20.1875 23.25 C-23.44882042 18.53920383 -23.51580633 14.44986376 -22.875 8.8125 C-18.0124833 -0.40951444 -10.06530734 -4.15740955 0 0 Z " fill="#000000" transform="translate(263.875,252.1875)"/>
</svg>
